<?xml version="1.0" encoding="utf-8"?>
<!-- Generator: Adobe Illustrator 26.0.3, SVG Export Plug-In . SVG Version: 6.00 Build 0)  -->
<svg version="1.1" id="Layer_1" xmlns="http://www.w3.org/2000/svg" xmlns:xlink="http://www.w3.org/1999/xlink" x="0px" y="0px"
	 viewBox="0 0 172.18 114.93" style="enable-background:new 0 0 172.18 114.93;" xml:space="preserve">
<style type="text/css">
	.st0{fill:#0B496D;}
	.st1{fill:#BF2026;}
	.st2{fill:#4D4D4D;}
	.st3{fill:#AA9462;}
	.st4{fill:#B3B3B3;}
	.st5{fill:#F5F5F5;}
	.st6{fill:#FFFFFF;}
</style>
<g>
	<g>
		<g>
			<g>
				<g>
					<g>
						<path class="st0" d="M13.4,84.71c-1.6,0.18-1.6,0.75-1.66,1.58c-0.04,0.61-0.08,1.35-0.08,2.85v2.38
							c0,2.12-0.18,3.72-1.29,4.93c-0.87,0.93-2.08,1.37-3.7,1.37c-1.31,0-2.59-0.28-3.56-1.09c-1.07-0.89-1.48-2.14-1.48-4.23
							v-5.26c0-2.08-0.12-2.31-1.64-2.55v-0.32h5.76v0.32c-1.56,0.28-1.62,0.46-1.62,2.55v5.5c0,2.65,1.27,3.94,3.5,3.94
							c2.43,0,3.36-1.27,3.36-5.12v-2.45c0-1.5-0.04-2.31-0.1-2.93c-0.08-0.99-0.32-1.35-2.1-1.5v-0.32h4.61V84.71z"/>
						<path class="st0" d="M12.56,97.83c-0.47,0-0.83-0.36-0.83-0.87c0-0.49,0.36-0.87,0.83-0.87c0.48,0,0.84,0.38,0.84,0.87
							C13.4,97.47,13.04,97.83,12.56,97.83z"/>
						<path class="st1" d="M24.11,97.83c-0.47,0-0.83-0.36-0.83-0.87c0-0.49,0.36-0.87,0.83-0.87c0.48,0,0.84,0.38,0.84,0.87
							C24.95,97.47,24.59,97.83,24.11,97.83z"/>
						<path class="st1" d="M21.8,87.26c-0.42-1.68-1.4-2.69-2.95-2.69c-1.21,0-1.9,0.83-1.9,2.12c0,1.27,0.71,1.88,2.45,2.91
							c1.74,1.03,3.3,2.12,3.3,4.24c0,2.33-1.96,3.98-4.65,3.98c-0.99,0-1.94-0.2-3.05-0.49c-0.12-0.38-0.43-2.77-0.44-3.09
							l0.32-0.06c0.45,1.76,1.64,3.17,3.5,3.17c1.39,0,2-0.95,2-2.31c0-1.27-0.75-2.18-2.18-3.05c-1.82-1.11-3.3-2.14-3.3-4.21
							c0-2.08,1.64-3.7,4.33-3.7c1.23,0,2.14,0.24,2.57,0.26c0.08,0.75,0.2,1.86,0.34,2.83L21.8,87.26z"/>
					</g>
				</g>
			</g>
			<g>
				<path class="st2" d="M41.4,94.29c-0.2,0.85-0.69,2.47-0.97,3.07c-0.5,0.1-2.08,0.46-3.44,0.46c-5.24,0-7.46-3.25-7.46-6.81
					c0-4,2.95-6.91,7.7-6.91c1.62,0,3.09,0.36,3.58,0.4c0.04,1.03,0.18,2.26,0.28,3.09l-0.36,0.08c-0.4-1.44-0.91-2.2-2.04-2.73
					c-0.55-0.26-1.13-0.36-1.96-0.36c-3.03,0-4.33,2.71-4.33,6.05c0,3.9,1.82,6.69,4.81,6.69c1.88,0,2.97-1.13,3.86-3.15L41.4,94.29
					z"/>
				<path class="st2" d="M55.75,97.67c-0.1,0-0.67,0-0.91,0c-2.43-0.1-3.07-0.57-3.76-1.64c-0.71-1.09-1.33-2.22-1.98-3.48
					c-0.44-0.85-0.75-1.09-1.44-1.09h-0.3v3.56c0,1.7,0.12,1.86,1.62,2.18v0.32h-5.7V97.2c1.5-0.32,1.62-0.44,1.62-2.18v-8.15
					c0-1.7-0.12-1.92-1.62-2.16v-0.32h5.44c1.66,0,2.67,0.18,3.5,0.77c0.77,0.53,1.21,1.35,1.21,2.39c0,2.04-1.56,2.95-2.57,3.38
					c0.3,0.55,1.37,2.41,1.94,3.32c0.77,1.23,1.03,1.64,1.47,2.16c0.47,0.55,0.75,0.73,1.54,0.99L55.75,97.67z M47.77,90.99
					c0.97,0,1.68-0.08,2.16-0.55c0.57-0.53,0.81-1.23,0.81-2.41c0-2.35-1.17-3.2-2.33-3.2c-0.43,0-0.71,0.04-0.83,0.14
					c-0.14,0.1-0.22,0.24-0.22,0.65v5.36H47.77z"/>
				<path class="st2" d="M66.71,94.35c-0.1,0.71-0.46,2.69-0.59,3.17h-9.87V97.2c1.74-0.24,1.88-0.34,1.88-2.14v-8.21
					c0-1.82-0.1-1.98-1.54-2.14v-0.32h6.13c1.98,0,2.77-0.02,2.93-0.04c0.02,0.77,0.1,2.06,0.2,2.93l-0.32,0.06
					c-0.16-0.51-0.43-1.25-0.87-1.78c-0.36-0.44-0.81-0.56-2-0.56h-1.52c-0.43,0-0.51,0.08-0.51,0.48v4.83h1.96
					c1.6,0,1.66-0.44,1.94-1.7h0.32v4h-0.32c-0.28-1.19-0.34-1.7-1.94-1.7h-1.96v4.31c0,1.42,0.3,1.68,1.56,1.7h1.19
					c1.19,0,1.47-0.16,1.98-0.71c0.36-0.4,0.69-1.09,1.03-1.92L66.71,94.35z"/>
				<path class="st2" d="M74.03,84.38c2.43,0,4.35,0.57,5.58,1.7c1.11,1.03,1.78,2.39,1.78,4.37c0,2.45-0.91,4.23-2.41,5.4
					c-1.46,1.13-3.2,1.68-5.24,1.68h-5.58V97.2c1.44-0.24,1.62-0.36,1.62-2.18v-8.13c0-1.82-0.18-1.94-1.62-2.18v-0.32H74.03z
					 M72.29,94.61c0.02,1.66,0.55,2.35,2.28,2.35c2.61,0,3.98-2,3.98-6.17c0-2.06-0.59-3.78-1.6-4.77c-0.81-0.83-1.8-1.15-3.13-1.15
					c-0.81,0-1.17,0.14-1.37,0.3c-0.2,0.16-0.22,0.51-0.22,1.19L72.29,94.61z"/>
				<path class="st2" d="M83.25,97.53V97.2c1.52-0.26,1.62-0.4,1.62-2.28v-7.95c0-1.88-0.14-2.04-1.62-2.26v-0.32h5.76v0.32
					c-1.47,0.26-1.64,0.36-1.64,2.26v7.93c0,1.94,0.12,2.04,1.64,2.3v0.32H83.25z"/>
				<path class="st2" d="M101.81,87.38c-0.24-0.79-0.38-1.35-0.89-1.92c-0.34-0.38-0.59-0.49-1.62-0.49h-1.66v10.07
					c0,1.74,0.2,1.9,1.78,2.16v0.32h-5.98V97.2c1.47-0.32,1.7-0.38,1.7-2.16V84.97h-1.84c-0.87,0-1.11,0.22-1.39,0.53
					c-0.34,0.38-0.67,1.13-0.91,1.92h-0.34c0.1-1.09,0.2-2.45,0.24-3.48h0.28c0.34,0.44,0.67,0.44,1.23,0.44h8.11
					c0.53,0,0.83-0.06,1.23-0.44h0.26c0,0.91,0.02,2.37,0.12,3.4L101.81,87.38z"/>
				<path class="st2" d="M119.84,97.67c-0.1,0-0.67,0-0.91,0c-2.43-0.1-3.07-0.57-3.76-1.64c-0.71-1.09-1.33-2.22-1.98-3.48
					c-0.44-0.85-0.75-1.09-1.44-1.09h-0.3v3.56c0,1.7,0.12,1.86,1.62,2.18v0.32h-5.7V97.2c1.5-0.32,1.62-0.44,1.62-2.18v-8.15
					c0-1.7-0.12-1.92-1.62-2.16v-0.32h5.44c1.66,0,2.67,0.18,3.5,0.77c0.77,0.53,1.21,1.35,1.21,2.39c0,2.04-1.56,2.95-2.57,3.38
					c0.3,0.55,1.37,2.41,1.94,3.32c0.77,1.23,1.03,1.64,1.47,2.16c0.47,0.55,0.75,0.73,1.54,0.99L119.84,97.67z M111.85,90.99
					c0.97,0,1.68-0.08,2.16-0.55c0.57-0.53,0.81-1.23,0.81-2.41c0-2.35-1.17-3.2-2.33-3.2c-0.43,0-0.71,0.04-0.83,0.14
					c-0.14,0.1-0.22,0.24-0.22,0.65v5.36H111.85z"/>
				<path class="st2" d="M130.8,94.35c-0.1,0.71-0.46,2.69-0.59,3.17h-9.87V97.2c1.74-0.24,1.88-0.34,1.88-2.14v-8.21
					c0-1.82-0.1-1.98-1.54-2.14v-0.32h6.13c1.98,0,2.77-0.02,2.93-0.04c0.02,0.77,0.1,2.06,0.2,2.93l-0.32,0.06
					c-0.16-0.51-0.43-1.25-0.87-1.78c-0.36-0.44-0.81-0.56-2-0.56h-1.52c-0.43,0-0.51,0.08-0.51,0.48v4.83h1.96
					c1.6,0,1.66-0.44,1.94-1.7h0.32v4h-0.32c-0.28-1.19-0.34-1.7-1.94-1.7h-1.96v4.31c0,1.42,0.3,1.68,1.56,1.7h1.19
					c1.19,0,1.47-0.16,1.98-0.71c0.36-0.4,0.69-1.09,1.03-1.92L130.8,94.35z"/>
				<path class="st2" d="M142.4,94.23c-0.18,0.93-0.73,2.99-0.85,3.3h-9.56V97.2c1.78-0.26,1.88-0.42,1.88-2.16v-8.17
					c0-1.8-0.14-1.9-1.68-2.16v-0.32h5.84v0.32c-1.52,0.28-1.66,0.43-1.66,2.16v8.65c0,1.27,0.34,1.4,1.35,1.4c0.34,0,0.91,0,1.21,0
					c1.09,0,1.37-0.16,1.9-0.65c0.43-0.4,0.89-1.29,1.25-2.12L142.4,94.23z"/>
				<path class="st2" d="M143.61,97.53V97.2c1.52-0.26,1.62-0.4,1.62-2.28v-7.95c0-1.88-0.14-2.04-1.62-2.26v-0.32h5.76v0.32
					c-1.47,0.26-1.64,0.36-1.64,2.26v7.93c0,1.94,0.12,2.04,1.64,2.3v0.32H143.61z"/>
				<path class="st2" d="M161.28,94.35c-0.1,0.71-0.46,2.69-0.59,3.17h-9.87V97.2c1.74-0.24,1.88-0.34,1.88-2.14v-8.21
					c0-1.82-0.1-1.98-1.54-2.14v-0.32h6.13c1.98,0,2.77-0.02,2.93-0.04c0.02,0.77,0.1,2.06,0.2,2.93l-0.32,0.06
					c-0.16-0.51-0.43-1.25-0.87-1.78c-0.36-0.44-0.81-0.56-2-0.56h-1.52c-0.43,0-0.51,0.08-0.51,0.48v4.83h1.96
					c1.6,0,1.66-0.44,1.94-1.7h0.32v4h-0.32c-0.28-1.19-0.34-1.7-1.94-1.7h-1.96v4.31c0,1.42,0.3,1.68,1.56,1.7h1.19
					c1.19,0,1.47-0.16,1.98-0.71c0.36-0.4,0.69-1.09,1.03-1.92L161.28,94.35z"/>
				<path class="st2" d="M171.86,87.42c-0.12-0.53-0.36-1.11-0.63-1.56c-0.36-0.63-0.89-0.87-2.2-0.87h-1.42
					c-0.61,0-0.75,0.1-0.75,0.71v4.81h2.22c1.47,0,1.6-0.32,1.94-1.74h0.3v4.08h-0.32c-0.38-1.37-0.45-1.74-1.92-1.74h-2.22v3.56
					c0,2.1,0.12,2.22,1.84,2.53v0.32h-5.97V97.2c1.48-0.26,1.62-0.42,1.62-2.53v-7.58c0-2-0.14-2.1-1.62-2.39v-0.32h6.35
					c1.98,0,2.69-0.02,2.91-0.04c0.02,0.36,0.08,1.96,0.18,3.03L171.86,87.42z"/>
			</g>
		</g>
		<g>
			<g>
				<g>
					<g>
						<path class="st3" d="M9.64,112.71c0.23-0.02,0.39-0.06,0.48-0.13c0.14-0.1,0.25-0.3,0.33-0.6l1.21-4.38l0.09-0.38
							c0.01-0.04,0.02-0.08,0.02-0.12c0-0.04,0.01-0.07,0.01-0.1c0-0.15-0.05-0.26-0.16-0.32c-0.11-0.06-0.29-0.1-0.55-0.11v-0.16
							h2.45c0.51,0,0.91,0.06,1.22,0.19c0.58,0.24,0.87,0.67,0.87,1.32c0,0.39-0.12,0.74-0.35,1.04c-0.45,0.59-1.25,0.88-2.42,0.88
							c-0.14,0-0.28,0-0.42-0.02c-0.14-0.01-0.27-0.03-0.4-0.06l-0.53,1.91c-0.03,0.12-0.06,0.21-0.07,0.29
							c-0.03,0.13-0.04,0.23-0.04,0.3c0,0.16,0.05,0.27,0.15,0.33c0.1,0.06,0.27,0.1,0.53,0.11v0.16H9.64V112.71z M12.36,109.46
							c0.09,0.01,0.2,0.01,0.35,0.01c0.49,0,0.87-0.07,1.15-0.2c0.51-0.25,0.77-0.73,0.77-1.43c0-0.42-0.12-0.71-0.35-0.88
							c-0.23-0.17-0.54-0.26-0.93-0.26c-0.15,0-0.27,0.02-0.35,0.04c-0.08,0.03-0.14,0.1-0.17,0.22l-0.7,2.45
							C12.19,109.44,12.27,109.45,12.36,109.46z"/>
						<path class="st3" d="M17.17,109.51c0.64-0.67,1.3-1.01,1.98-1.01c0.25,0,0.45,0.06,0.6,0.17c0.15,0.12,0.22,0.29,0.22,0.51
							c0,0.46-0.27,0.86-0.81,1.19c-0.54,0.33-1.11,0.53-1.71,0.61l-0.28,0.03c-0.04,0.13-0.07,0.24-0.09,0.32
							c-0.02,0.08-0.02,0.18-0.02,0.3c0,0.28,0.09,0.51,0.28,0.66c0.19,0.16,0.41,0.24,0.66,0.24c0.24,0,0.5-0.08,0.77-0.24
							c0.15-0.09,0.38-0.26,0.67-0.5l0.12,0.11c-0.14,0.18-0.35,0.37-0.62,0.57c-0.48,0.34-0.96,0.52-1.45,0.52
							c-0.34,0-0.64-0.12-0.9-0.36c-0.26-0.24-0.39-0.59-0.39-1.04C16.2,110.87,16.52,110.18,17.17,109.51z M18.74,110.15
							c0.39-0.34,0.58-0.68,0.58-1.02c0-0.12-0.03-0.22-0.09-0.29c-0.06-0.07-0.14-0.11-0.26-0.11c-0.21,0-0.41,0.09-0.62,0.27
							c-0.2,0.18-0.38,0.38-0.54,0.61c-0.17,0.26-0.31,0.52-0.41,0.76c-0.06,0.13-0.11,0.27-0.17,0.44
							C17.85,110.71,18.35,110.5,18.74,110.15z"/>
						<path class="st3" d="M22.57,108.49c0.01,0.02,0.02,0.04,0.02,0.06c0,0.03,0,0.06-0.01,0.07l-0.49,1.89l0.11-0.22
							c0.23-0.45,0.5-0.87,0.81-1.25c0.31-0.38,0.61-0.56,0.89-0.56c0.15,0,0.27,0.05,0.35,0.15c0.08,0.1,0.12,0.21,0.12,0.34
							c0,0.15-0.04,0.27-0.12,0.36c-0.08,0.1-0.2,0.14-0.34,0.14c-0.1,0-0.18-0.02-0.23-0.06c-0.05-0.04-0.09-0.08-0.12-0.14
							l-0.06-0.11c-0.01-0.02-0.03-0.03-0.05-0.05c-0.02-0.01-0.04-0.02-0.07-0.02c-0.13,0-0.31,0.18-0.55,0.53
							c-0.24,0.35-0.45,0.73-0.64,1.14c-0.11,0.25-0.24,0.58-0.38,0.99c-0.09,0.26-0.2,0.62-0.35,1.1h-0.74l0.8-2.91
							c0.05-0.17,0.08-0.32,0.11-0.45c0.03-0.13,0.04-0.24,0.04-0.32c0-0.1-0.02-0.17-0.07-0.22c-0.05-0.05-0.13-0.08-0.25-0.08
							c-0.04,0-0.09,0-0.15,0.01c-0.06,0.01-0.13,0.02-0.21,0.02v-0.16l0.19-0.04c0.25-0.05,0.53-0.11,0.82-0.16
							c0.3-0.06,0.46-0.09,0.47-0.09C22.54,108.47,22.56,108.48,22.57,108.49z"/>
						<path class="st3" d="M24.89,111.43h0.16c0.07,0.39,0.15,0.68,0.25,0.86c0.18,0.33,0.44,0.5,0.79,0.5c0.2,0,0.36-0.07,0.5-0.21
							c0.13-0.14,0.2-0.32,0.2-0.55c0-0.14-0.02-0.26-0.05-0.35c-0.03-0.09-0.08-0.17-0.13-0.25l-0.4-0.59
							c-0.24-0.36-0.39-0.6-0.46-0.73c-0.09-0.18-0.14-0.37-0.14-0.55c0-0.28,0.1-0.53,0.3-0.74c0.2-0.21,0.49-0.32,0.86-0.32
							c0.16,0,0.34,0.03,0.54,0.09c0.2,0.06,0.34,0.09,0.42,0.09c0.08,0,0.14-0.02,0.18-0.05c0.04-0.03,0.07-0.08,0.11-0.13h0.14
							l-0.2,1.37H27.8c-0.04-0.31-0.1-0.55-0.19-0.71c-0.15-0.29-0.4-0.44-0.74-0.44c-0.14,0-0.27,0.05-0.38,0.13
							c-0.11,0.09-0.17,0.22-0.17,0.39c0,0.13,0.03,0.25,0.08,0.35c0.05,0.1,0.16,0.28,0.34,0.53l0.34,0.49
							c0.18,0.26,0.3,0.46,0.38,0.62c0.07,0.16,0.11,0.34,0.11,0.52c0,0.35-0.15,0.64-0.44,0.88c-0.3,0.24-0.65,0.36-1.06,0.36
							c-0.13,0-0.32-0.03-0.57-0.08c-0.24-0.05-0.39-0.08-0.43-0.08c-0.07,0-0.11,0.02-0.14,0.04c-0.03,0.03-0.06,0.07-0.09,0.13
							H24.7L24.89,111.43z"/>
						<path class="st3" d="M157.18,111.43h0.16c0.07,0.39,0.15,0.68,0.25,0.86c0.18,0.33,0.44,0.5,0.79,0.5
							c0.2,0,0.36-0.07,0.5-0.21c0.13-0.14,0.2-0.32,0.2-0.55c0-0.14-0.02-0.26-0.05-0.35c-0.03-0.09-0.08-0.17-0.13-0.25l-0.4-0.59
							c-0.24-0.36-0.39-0.6-0.46-0.73c-0.09-0.18-0.14-0.37-0.14-0.55c0-0.28,0.1-0.53,0.3-0.74c0.2-0.21,0.49-0.32,0.86-0.32
							c0.16,0,0.34,0.03,0.54,0.09c0.2,0.06,0.34,0.09,0.42,0.09c0.08,0,0.14-0.02,0.18-0.05c0.04-0.03,0.07-0.08,0.11-0.13h0.14
							l-0.2,1.37h-0.16c-0.04-0.31-0.1-0.55-0.19-0.71c-0.15-0.29-0.4-0.44-0.74-0.44c-0.14,0-0.27,0.05-0.38,0.13
							c-0.11,0.09-0.17,0.22-0.17,0.39c0,0.13,0.03,0.25,0.08,0.35c0.05,0.1,0.16,0.28,0.34,0.53l0.34,0.49
							c0.18,0.26,0.3,0.46,0.38,0.62c0.07,0.16,0.11,0.34,0.11,0.52c0,0.35-0.15,0.64-0.45,0.88c-0.3,0.24-0.65,0.36-1.06,0.36
							c-0.13,0-0.32-0.03-0.57-0.08c-0.24-0.05-0.39-0.08-0.43-0.08c-0.07,0-0.11,0.02-0.14,0.04c-0.03,0.03-0.06,0.07-0.08,0.13
							h-0.16L157.18,111.43z"/>
						<path class="st3" d="M32.88,108.91c0.22,0.29,0.33,0.63,0.33,1.02c0,0.68-0.3,1.35-0.9,2.01c-0.62,0.68-1.29,1.03-1.99,1.03
							c-0.44,0-0.8-0.13-1.07-0.39c-0.27-0.26-0.4-0.62-0.4-1.09c0-0.71,0.3-1.38,0.9-2.03c0.61-0.66,1.28-0.99,1.99-0.99
							C32.28,108.48,32.66,108.62,32.88,108.91z M29.89,112.49c0.13,0.18,0.33,0.26,0.59,0.26c0.53,0,0.99-0.4,1.4-1.19
							c0.34-0.68,0.52-1.31,0.52-1.88c0-0.24-0.03-0.44-0.09-0.58c-0.11-0.28-0.32-0.42-0.62-0.42c-0.49,0-0.96,0.37-1.39,1.11
							c-0.41,0.69-0.61,1.37-0.61,2.04C29.69,112.1,29.75,112.32,29.89,112.49z"/>
						<path class="st3" d="M33.92,112.87l0.83-2.99c0.07-0.25,0.11-0.41,0.12-0.46c0.01-0.05,0.02-0.11,0.02-0.17
							c0-0.09-0.03-0.17-0.08-0.22c-0.05-0.05-0.16-0.08-0.31-0.08c-0.04,0-0.08,0-0.11,0.01c-0.04,0-0.08,0.01-0.12,0.02v-0.16
							c0.21-0.03,0.36-0.06,0.44-0.07s0.18-0.03,0.29-0.06l0.86-0.19c0.02,0.01,0.03,0.03,0.04,0.04l-0.64,2.08
							c0.4-0.6,0.73-1.05,0.99-1.34c0.47-0.52,0.89-0.78,1.26-0.78c0.14,0,0.27,0.03,0.37,0.08c0.2,0.11,0.3,0.3,0.3,0.58
							c0,0.08-0.01,0.16-0.02,0.24c-0.02,0.08-0.04,0.17-0.06,0.27l-0.64,2.32c-0.01,0.05-0.03,0.11-0.04,0.18
							c-0.02,0.07-0.02,0.12-0.02,0.15c0,0.05,0.01,0.09,0.03,0.13c0.02,0.04,0.06,0.06,0.11,0.06c0.08,0,0.17-0.05,0.28-0.15
							s0.28-0.31,0.51-0.63l0.14,0.13c-0.26,0.36-0.46,0.61-0.62,0.75c-0.26,0.25-0.51,0.38-0.74,0.38c-0.11,0-0.21-0.04-0.31-0.11
							c-0.1-0.07-0.15-0.2-0.15-0.39c0-0.05,0-0.11,0.01-0.17c0.01-0.06,0.02-0.12,0.03-0.16l0.62-2.35
							c0.03-0.13,0.05-0.23,0.07-0.32c0.01-0.08,0.02-0.14,0.02-0.18c0-0.08-0.02-0.14-0.06-0.2c-0.04-0.06-0.1-0.09-0.2-0.09
							c-0.25,0-0.55,0.22-0.93,0.66c-0.22,0.26-0.44,0.57-0.67,0.93c-0.17,0.28-0.3,0.55-0.4,0.82c-0.1,0.27-0.25,0.75-0.46,1.45
							H33.92z"/>
						<path class="st3" d="M42.52,108.68c0.08,0.07,0.13,0.16,0.18,0.28l0.02,0.07l0.11-0.36c0.01-0.04,0.02-0.07,0.03-0.08
							c0.01-0.01,0.03-0.02,0.07-0.03l0.56-0.06c0.03,0,0.05,0,0.05,0.02c0,0.01,0,0.03,0,0.06c-0.01,0.04-0.02,0.07-0.03,0.1
							c-0.01,0.02-0.02,0.06-0.03,0.1L43,110.5c-0.1,0.38-0.19,0.7-0.26,0.98c-0.12,0.49-0.18,0.78-0.18,0.85
							c0,0.05,0.01,0.08,0.04,0.1s0.05,0.03,0.09,0.03c0.03,0,0.06-0.01,0.1-0.03c0.04-0.02,0.08-0.05,0.13-0.09l0.09-0.07
							c0.03-0.02,0.06-0.05,0.09-0.08c0.03-0.03,0.07-0.07,0.12-0.11l0.32-0.31l0.12,0.1c-0.34,0.43-0.62,0.72-0.83,0.87
							c-0.21,0.15-0.41,0.23-0.6,0.23c-0.12,0-0.22-0.04-0.28-0.12c-0.07-0.08-0.1-0.19-0.1-0.31c0-0.12,0.02-0.28,0.07-0.5
							c0.04-0.22,0.09-0.4,0.13-0.55c-0.06,0.1-0.16,0.24-0.29,0.42s-0.31,0.36-0.5,0.54c-0.24,0.21-0.46,0.36-0.68,0.44
							c-0.17,0.06-0.33,0.09-0.48,0.09c-0.26,0-0.5-0.11-0.71-0.32c-0.21-0.22-0.32-0.52-0.32-0.91c0-0.68,0.31-1.39,0.92-2.12
							c0.63-0.77,1.29-1.15,1.97-1.15C42.18,108.48,42.38,108.55,42.52,108.68z M42.36,108.86c-0.11-0.11-0.24-0.16-0.39-0.16
							c-0.53,0-1.03,0.4-1.48,1.21c-0.4,0.71-0.6,1.32-0.6,1.83c0,0.26,0.06,0.45,0.17,0.56c0.11,0.12,0.25,0.18,0.41,0.18
							c0.49,0,0.95-0.39,1.4-1.18c0.43-0.71,0.65-1.36,0.65-1.93C42.52,109.14,42.47,108.97,42.36,108.86z"/>
						<path class="st3" d="M45.91,107c0.01-0.04,0.02-0.08,0.02-0.13c0-0.04,0-0.08,0-0.1c0-0.11-0.04-0.18-0.13-0.2
							s-0.26-0.03-0.53-0.03v-0.16c0.15-0.02,0.31-0.04,0.5-0.07c0.19-0.03,0.31-0.04,0.37-0.05c0.18-0.03,0.4-0.08,0.66-0.15
							c0.02,0,0.05,0.02,0.07,0.05l-1.61,5.81c-0.03,0.14-0.06,0.22-0.06,0.25c-0.01,0.03-0.01,0.06-0.01,0.09
							c0,0.06,0.01,0.11,0.03,0.16c0.02,0.04,0.07,0.07,0.13,0.07c0.12,0,0.27-0.1,0.46-0.31c0.19-0.21,0.34-0.41,0.47-0.6
							l0.13,0.09c-0.28,0.41-0.5,0.69-0.65,0.85c-0.27,0.27-0.54,0.4-0.81,0.4c-0.12,0-0.22-0.03-0.31-0.09
							c-0.14-0.09-0.21-0.24-0.21-0.44c0-0.08,0.01-0.19,0.04-0.32c0.02-0.08,0.04-0.17,0.07-0.28L45.91,107z"/>
						<path class="st3" d="M49.24,108.48c0.02,0.01,0.02,0.02,0.02,0.04l-0.98,3.45c-0.05,0.18-0.07,0.29-0.07,0.33
							c0,0.05,0.01,0.09,0.03,0.13c0.02,0.04,0.06,0.06,0.12,0.06c0.11,0,0.26-0.1,0.44-0.29c0.11-0.11,0.24-0.27,0.39-0.48
							l0.13,0.11l-0.05,0.07c-0.24,0.34-0.44,0.58-0.6,0.73c-0.25,0.23-0.49,0.35-0.73,0.35c-0.14,0-0.25-0.06-0.34-0.17
							c-0.09-0.12-0.14-0.25-0.14-0.41c0-0.09,0.01-0.17,0.02-0.24c0.01-0.07,0.04-0.17,0.07-0.31l0.69-2.49
							c0.01-0.04,0.02-0.07,0.02-0.11c0.01-0.03,0.01-0.06,0.01-0.1c0-0.12-0.04-0.19-0.13-0.22c-0.09-0.03-0.25-0.04-0.51-0.04
							v-0.16c0.27-0.03,0.46-0.06,0.57-0.07c0.12-0.02,0.23-0.04,0.35-0.06c0.15-0.03,0.3-0.05,0.44-0.09
							C49.14,108.48,49.22,108.47,49.24,108.48z M48.78,107.27c-0.09-0.1-0.14-0.23-0.14-0.37c0-0.15,0.05-0.27,0.14-0.38
							c0.09-0.1,0.21-0.15,0.34-0.15c0.13,0,0.25,0.05,0.34,0.15c0.1,0.1,0.14,0.23,0.14,0.38c0,0.15-0.05,0.27-0.14,0.38
							c-0.09,0.1-0.21,0.15-0.34,0.15C48.98,107.43,48.87,107.38,48.78,107.27z"/>
						<path class="st3" d="M53.7,108.74l-2.87,3.41c0.21,0.04,0.37,0.09,0.49,0.15c0.21,0.1,0.39,0.25,0.55,0.46l0.29,0.39
							c0.07,0.09,0.15,0.17,0.25,0.24c0.09,0.06,0.19,0.1,0.3,0.1c0.08,0,0.15-0.02,0.2-0.05c0.05-0.03,0.08-0.07,0.08-0.12
							c0-0.02-0.02-0.08-0.07-0.17c-0.04-0.1-0.07-0.19-0.07-0.27c0-0.1,0.03-0.17,0.1-0.23c0.07-0.05,0.15-0.08,0.23-0.08
							c0.12,0,0.21,0.04,0.27,0.11c0.06,0.07,0.09,0.17,0.09,0.28c0,0.17-0.09,0.34-0.27,0.49c-0.18,0.15-0.4,0.23-0.67,0.23
							c-0.15,0-0.29-0.03-0.43-0.08c-0.09-0.03-0.18-0.08-0.3-0.15l-0.58-0.33c-0.19-0.1-0.35-0.18-0.47-0.23
							c-0.12-0.05-0.24-0.07-0.37-0.07c-0.09,0-0.16,0.01-0.21,0.04s-0.13,0.07-0.22,0.15l-0.11-0.09l3.08-3.69h-1.44
							c-0.22,0-0.38,0.04-0.5,0.12c-0.11,0.08-0.21,0.23-0.31,0.47l-0.16-0.04l0.31-1.15h2.81V108.74z"/>
						<path class="st3" d="M55.27,109.51c0.64-0.67,1.3-1.01,1.98-1.01c0.25,0,0.45,0.06,0.6,0.17c0.15,0.12,0.22,0.29,0.22,0.51
							c0,0.46-0.27,0.86-0.81,1.19c-0.54,0.33-1.11,0.53-1.71,0.61l-0.28,0.03c-0.04,0.13-0.07,0.24-0.09,0.32
							c-0.02,0.08-0.02,0.18-0.02,0.3c0,0.28,0.09,0.51,0.28,0.66c0.19,0.16,0.41,0.24,0.66,0.24c0.24,0,0.5-0.08,0.77-0.24
							c0.16-0.09,0.38-0.26,0.67-0.5l0.12,0.11c-0.14,0.18-0.35,0.37-0.62,0.57c-0.48,0.34-0.96,0.52-1.45,0.52
							c-0.34,0-0.64-0.12-0.9-0.36c-0.26-0.24-0.39-0.59-0.39-1.04C54.3,110.87,54.62,110.18,55.27,109.51z M56.83,110.15
							c0.39-0.34,0.58-0.68,0.58-1.02c0-0.12-0.03-0.22-0.09-0.29c-0.06-0.07-0.14-0.11-0.26-0.11c-0.21,0-0.41,0.09-0.62,0.27
							c-0.2,0.18-0.38,0.38-0.54,0.61c-0.17,0.26-0.31,0.52-0.41,0.76c-0.06,0.13-0.11,0.27-0.17,0.44
							C55.94,110.71,56.45,110.5,56.83,110.15z"/>
						<path class="st3" d="M62.14,108.66c0.06,0.07,0.11,0.19,0.15,0.36l0.57-1.98c0.02-0.05,0.03-0.1,0.03-0.15
							c0-0.04,0.01-0.08,0.01-0.11c0-0.13-0.02-0.21-0.07-0.24c-0.05-0.03-0.11-0.05-0.2-0.05c-0.05,0-0.11,0-0.15,0
							c-0.05,0-0.11,0.01-0.19,0.02v-0.16c0.37-0.05,0.87-0.13,1.52-0.25l0.04,0.05l-0.01,0.05l-0.95,3.47l-0.65,2.3
							c-0.01,0.05-0.02,0.1-0.03,0.14c-0.01,0.04-0.01,0.08-0.01,0.12c0,0.09,0.02,0.15,0.07,0.17c0.04,0.03,0.08,0.04,0.11,0.04
							c0.09,0,0.23-0.08,0.4-0.25c0.1-0.1,0.24-0.26,0.42-0.47l0.11,0.11l-0.07,0.1c-0.12,0.18-0.27,0.36-0.46,0.54
							c-0.34,0.33-0.63,0.49-0.9,0.49c-0.09,0-0.17-0.02-0.24-0.06c-0.13-0.08-0.2-0.22-0.2-0.41c0-0.07,0.01-0.18,0.03-0.33
							c0.02-0.15,0.05-0.31,0.09-0.49c-0.25,0.37-0.51,0.68-0.81,0.92c-0.29,0.24-0.61,0.36-0.96,0.36c-0.28,0-0.53-0.1-0.74-0.3
							c-0.21-0.2-0.31-0.51-0.31-0.92c0-0.7,0.32-1.42,0.97-2.16c0.65-0.74,1.27-1.11,1.89-1.11
							C61.85,108.48,62.03,108.54,62.14,108.66z M59.73,112.26c0.09,0.15,0.24,0.22,0.46,0.22c0.46,0,0.91-0.37,1.33-1.11
							c0.41-0.7,0.62-1.35,0.62-1.98c0-0.2-0.03-0.36-0.1-0.49c-0.07-0.13-0.2-0.19-0.39-0.19c-0.49,0-0.97,0.4-1.43,1.19
							c-0.41,0.71-0.62,1.32-0.62,1.85C59.59,111.94,59.64,112.11,59.73,112.26z"/>
						<path class="st3" d="M71.9,106.4c0.34,0.08,0.54,0.12,0.61,0.12c0.12,0,0.2-0.02,0.25-0.06c0.05-0.04,0.09-0.09,0.12-0.16h0.2
							l-0.36,1.97l-0.17-0.02c-0.04-0.39-0.12-0.7-0.26-0.94c-0.26-0.44-0.68-0.66-1.26-0.66c-0.9,0-1.65,0.45-2.23,1.35
							c-0.51,0.78-0.76,1.63-0.76,2.55c0,0.68,0.15,1.19,0.46,1.54c0.31,0.35,0.71,0.52,1.2,0.52c0.5,0,0.96-0.12,1.38-0.37
							c0.25-0.15,0.57-0.41,0.97-0.8l0.16,0.14c-0.36,0.46-0.77,0.82-1.23,1.08c-0.46,0.26-0.96,0.39-1.51,0.39
							c-0.83,0-1.46-0.26-1.9-0.78c-0.44-0.52-0.66-1.13-0.66-1.83c0-1,0.37-1.92,1.11-2.77c0.81-0.93,1.79-1.39,2.95-1.39
							C71.26,106.28,71.57,106.32,71.9,106.4z"/>
						<path class="st3" d="M75.29,108.49c0.01,0.02,0.02,0.04,0.02,0.06c0,0.03,0,0.06-0.01,0.07l-0.49,1.89l0.11-0.22
							c0.23-0.45,0.5-0.87,0.81-1.25c0.31-0.38,0.61-0.56,0.89-0.56c0.15,0,0.27,0.05,0.35,0.15c0.08,0.1,0.12,0.21,0.12,0.34
							c0,0.15-0.04,0.27-0.12,0.36c-0.08,0.1-0.2,0.14-0.34,0.14c-0.1,0-0.18-0.02-0.23-0.06c-0.05-0.04-0.09-0.08-0.12-0.14
							l-0.06-0.11c-0.01-0.02-0.03-0.03-0.05-0.05c-0.02-0.01-0.04-0.02-0.07-0.02c-0.13,0-0.31,0.18-0.55,0.53
							c-0.24,0.35-0.45,0.73-0.64,1.14c-0.11,0.25-0.24,0.58-0.38,0.99c-0.09,0.26-0.2,0.62-0.35,1.1h-0.74l0.8-2.91
							c0.05-0.17,0.08-0.32,0.11-0.45c0.03-0.13,0.04-0.24,0.04-0.32c0-0.1-0.02-0.17-0.07-0.22c-0.05-0.05-0.13-0.08-0.25-0.08
							c-0.04,0-0.09,0-0.15,0.01c-0.06,0.01-0.13,0.02-0.21,0.02v-0.16l0.19-0.04c0.25-0.05,0.53-0.11,0.82-0.16
							c0.3-0.06,0.46-0.09,0.47-0.09C75.26,108.47,75.28,108.48,75.29,108.49z"/>
						<path class="st3" d="M78.18,109.51c0.64-0.67,1.3-1.01,1.98-1.01c0.25,0,0.45,0.06,0.6,0.17c0.15,0.12,0.22,0.29,0.22,0.51
							c0,0.46-0.27,0.86-0.81,1.19c-0.54,0.33-1.11,0.53-1.71,0.61l-0.28,0.03c-0.04,0.13-0.07,0.24-0.09,0.32
							c-0.02,0.08-0.02,0.18-0.02,0.3c0,0.28,0.09,0.51,0.28,0.66c0.19,0.16,0.41,0.24,0.66,0.24c0.24,0,0.5-0.08,0.77-0.24
							c0.15-0.09,0.38-0.26,0.67-0.5l0.12,0.11c-0.14,0.18-0.35,0.37-0.62,0.57c-0.48,0.34-0.96,0.52-1.45,0.52
							c-0.34,0-0.64-0.12-0.9-0.36c-0.26-0.24-0.39-0.59-0.39-1.04C77.21,110.87,77.53,110.18,78.18,109.51z M79.75,110.15
							c0.39-0.34,0.58-0.68,0.58-1.02c0-0.12-0.03-0.22-0.09-0.29c-0.06-0.07-0.14-0.11-0.26-0.11c-0.21,0-0.41,0.09-0.62,0.27
							c-0.2,0.18-0.38,0.38-0.54,0.61c-0.17,0.26-0.31,0.52-0.41,0.76c-0.06,0.13-0.11,0.27-0.17,0.44
							C78.86,110.71,79.36,110.5,79.75,110.15z"/>
						<path class="st3" d="M85.05,108.66c0.06,0.07,0.11,0.19,0.15,0.36l0.57-1.98c0.02-0.05,0.03-0.1,0.03-0.15
							c0-0.04,0.01-0.08,0.01-0.11c0-0.13-0.02-0.21-0.07-0.24c-0.05-0.03-0.11-0.05-0.2-0.05c-0.05,0-0.11,0-0.15,0
							c-0.05,0-0.11,0.01-0.19,0.02v-0.16c0.37-0.05,0.87-0.13,1.52-0.25l0.04,0.05l-0.01,0.05l-0.95,3.47l-0.65,2.3
							c-0.01,0.05-0.02,0.1-0.03,0.14c-0.01,0.04-0.01,0.08-0.01,0.12c0,0.09,0.02,0.15,0.07,0.17c0.04,0.03,0.08,0.04,0.11,0.04
							c0.09,0,0.23-0.08,0.4-0.25c0.1-0.1,0.24-0.26,0.42-0.47l0.11,0.11l-0.07,0.1c-0.12,0.18-0.27,0.36-0.46,0.54
							c-0.34,0.33-0.63,0.49-0.9,0.49c-0.09,0-0.17-0.02-0.24-0.06c-0.13-0.08-0.2-0.22-0.2-0.41c0-0.07,0.01-0.18,0.03-0.33
							c0.02-0.15,0.05-0.31,0.09-0.49c-0.25,0.37-0.51,0.68-0.81,0.92c-0.29,0.24-0.61,0.36-0.96,0.36c-0.28,0-0.53-0.1-0.74-0.3
							c-0.21-0.2-0.31-0.51-0.31-0.92c0-0.7,0.32-1.42,0.97-2.16c0.65-0.74,1.27-1.11,1.89-1.11
							C84.76,108.48,84.94,108.54,85.05,108.66z M82.64,112.26c0.09,0.15,0.24,0.22,0.46,0.22c0.46,0,0.91-0.37,1.33-1.11
							c0.41-0.7,0.62-1.35,0.62-1.98c0-0.2-0.03-0.36-0.1-0.49c-0.07-0.13-0.2-0.19-0.39-0.19c-0.49,0-0.97,0.4-1.43,1.19
							c-0.41,0.71-0.62,1.32-0.62,1.85C82.5,111.94,82.55,112.11,82.64,112.26z"/>
						<path class="st3" d="M88.89,108.48c0.02,0.01,0.02,0.02,0.02,0.04l-0.98,3.45c-0.05,0.18-0.07,0.29-0.07,0.33
							c0,0.05,0.01,0.09,0.03,0.13c0.02,0.04,0.06,0.06,0.12,0.06c0.11,0,0.26-0.1,0.44-0.29c0.11-0.11,0.24-0.27,0.39-0.48
							l0.13,0.11l-0.05,0.07c-0.24,0.34-0.44,0.58-0.6,0.73c-0.25,0.23-0.49,0.35-0.73,0.35c-0.14,0-0.25-0.06-0.34-0.17
							c-0.09-0.12-0.14-0.25-0.14-0.41c0-0.09,0.01-0.17,0.02-0.24c0.01-0.07,0.04-0.17,0.07-0.31l0.69-2.49
							c0.01-0.04,0.02-0.07,0.02-0.11c0.01-0.03,0.01-0.06,0.01-0.1c0-0.12-0.04-0.19-0.13-0.22c-0.09-0.03-0.25-0.04-0.51-0.04
							v-0.16c0.27-0.03,0.46-0.06,0.57-0.07c0.12-0.02,0.23-0.04,0.35-0.06c0.15-0.03,0.3-0.05,0.44-0.09
							C88.8,108.48,88.87,108.47,88.89,108.48z M88.43,107.27c-0.09-0.1-0.14-0.23-0.14-0.37c0-0.15,0.05-0.27,0.14-0.38
							c0.09-0.1,0.21-0.15,0.34-0.15c0.13,0,0.25,0.05,0.34,0.15c0.1,0.1,0.14,0.23,0.14,0.38c0,0.15-0.05,0.27-0.14,0.38
							c-0.09,0.1-0.21,0.15-0.34,0.15C88.64,107.43,88.53,107.38,88.43,107.27z"/>
						<path class="st3" d="M89.97,112.46c0-0.03,0.01-0.07,0.02-0.1l0.93-3.37h-0.74c0-0.09,0.01-0.14,0.02-0.17
							c0.01-0.02,0.05-0.04,0.1-0.07c0.33-0.14,0.58-0.27,0.76-0.4c0.18-0.13,0.43-0.38,0.74-0.75l0.08-0.09
							c0.01-0.01,0.02-0.02,0.04-0.03c0.01-0.01,0.03-0.01,0.05-0.01c0.03,0.01,0.05,0.01,0.07,0.02c0.01,0.02,0.02,0.04,0.02,0.06
							c0,0.02,0,0.04,0,0.06l-0.28,1.05h0.8l-0.06,0.33h-0.83l-0.89,3.25c-0.02,0.06-0.01,0.11,0.02,0.17
							c0.03,0.05,0.07,0.08,0.13,0.08c0.08,0,0.2-0.08,0.35-0.25c0.09-0.09,0.23-0.27,0.44-0.54l0.12,0.07l-0.07,0.1
							c-0.28,0.42-0.52,0.7-0.73,0.87c-0.21,0.16-0.41,0.24-0.6,0.24c-0.16,0-0.28-0.04-0.36-0.13c-0.07-0.09-0.11-0.19-0.11-0.29
							C89.96,112.52,89.96,112.49,89.97,112.46z"/>
						<path class="st3" d="M95.08,112.71c0.23-0.02,0.39-0.06,0.48-0.13c0.14-0.1,0.25-0.3,0.33-0.6l1.22-4.38
							c0.03-0.09,0.05-0.19,0.07-0.31c0.02-0.12,0.04-0.22,0.04-0.31c0-0.15-0.05-0.26-0.16-0.31c-0.11-0.06-0.29-0.09-0.53-0.1
							v-0.16h2.45c0.47,0,0.86,0.06,1.18,0.17c0.59,0.22,0.89,0.63,0.89,1.23c0,0.57-0.26,1.02-0.78,1.33
							c-0.28,0.17-0.67,0.31-1.18,0.42l0.92,2.43c0.09,0.24,0.19,0.41,0.31,0.53c0.12,0.11,0.29,0.17,0.52,0.18v0.16h-1.47
							l-1.22-3.21l-0.65-0.05l-0.56,2.07c-0.02,0.09-0.05,0.17-0.07,0.25c-0.03,0.16-0.05,0.28-0.05,0.37
							c0,0.15,0.05,0.26,0.16,0.31c0.11,0.06,0.28,0.09,0.52,0.1v0.16h-2.43V112.71z M98.04,109.28c0.05,0,0.11,0.01,0.17,0.01
							c0.5,0,0.92-0.12,1.27-0.34c0.35-0.23,0.52-0.62,0.52-1.17c0-0.41-0.12-0.7-0.36-0.84c-0.24-0.15-0.54-0.22-0.91-0.22
							c-0.13,0-0.24,0.02-0.31,0.05c-0.07,0.03-0.13,0.1-0.16,0.22l-0.63,2.26C97.85,109.26,97.99,109.28,98.04,109.28z"/>
						<path class="st3" d="M102.74,109.51c0.64-0.67,1.3-1.01,1.98-1.01c0.25,0,0.45,0.06,0.6,0.17c0.15,0.12,0.22,0.29,0.22,0.51
							c0,0.46-0.27,0.86-0.81,1.19c-0.54,0.33-1.11,0.53-1.71,0.61l-0.28,0.03c-0.04,0.13-0.07,0.24-0.09,0.32
							c-0.02,0.08-0.02,0.18-0.02,0.3c0,0.28,0.09,0.51,0.28,0.66c0.19,0.16,0.41,0.24,0.66,0.24c0.24,0,0.5-0.08,0.77-0.24
							c0.15-0.09,0.38-0.26,0.67-0.5l0.12,0.11c-0.14,0.18-0.35,0.37-0.62,0.57c-0.48,0.34-0.96,0.52-1.45,0.52
							c-0.34,0-0.64-0.12-0.9-0.36c-0.26-0.24-0.39-0.59-0.39-1.04C101.78,110.87,102.1,110.18,102.74,109.51z M104.31,110.15
							c0.39-0.34,0.58-0.68,0.58-1.02c0-0.12-0.03-0.22-0.09-0.29c-0.06-0.07-0.14-0.11-0.26-0.11c-0.21,0-0.41,0.09-0.62,0.27
							c-0.2,0.18-0.38,0.38-0.54,0.61c-0.17,0.26-0.31,0.52-0.41,0.76c-0.06,0.13-0.11,0.27-0.17,0.44
							C103.42,110.71,103.92,110.5,104.31,110.15z"/>
						<path class="st3" d="M107.93,107c0.01-0.04,0.02-0.08,0.02-0.13c0-0.04,0-0.08,0-0.1c0-0.11-0.04-0.18-0.13-0.2
							c-0.09-0.02-0.26-0.03-0.53-0.03v-0.16c0.15-0.02,0.31-0.04,0.5-0.07c0.19-0.03,0.31-0.04,0.37-0.05
							c0.18-0.03,0.4-0.08,0.66-0.15c0.02,0,0.05,0.02,0.07,0.05l-1.61,5.81c-0.03,0.14-0.06,0.22-0.06,0.25
							c-0.01,0.03-0.01,0.06-0.01,0.09c0,0.06,0.01,0.11,0.03,0.16c0.02,0.04,0.07,0.07,0.13,0.07c0.12,0,0.27-0.1,0.46-0.31
							c0.19-0.21,0.34-0.41,0.47-0.6l0.13,0.09c-0.28,0.41-0.5,0.69-0.65,0.85c-0.27,0.27-0.54,0.4-0.81,0.4
							c-0.12,0-0.22-0.03-0.31-0.09c-0.14-0.09-0.21-0.24-0.21-0.44c0-0.08,0.01-0.19,0.04-0.32c0.02-0.08,0.04-0.17,0.07-0.28
							L107.93,107z"/>
						<path class="st3" d="M111.25,108.48c0.02,0.01,0.02,0.02,0.02,0.04l-0.98,3.45c-0.05,0.18-0.07,0.29-0.07,0.33
							c0,0.05,0.01,0.09,0.03,0.13c0.02,0.04,0.06,0.06,0.12,0.06c0.11,0,0.26-0.1,0.44-0.29c0.11-0.11,0.24-0.27,0.39-0.48
							l0.13,0.11l-0.05,0.07c-0.24,0.34-0.44,0.58-0.6,0.73c-0.25,0.23-0.49,0.35-0.73,0.35c-0.14,0-0.25-0.06-0.34-0.17
							c-0.09-0.12-0.14-0.25-0.14-0.41c0-0.09,0.01-0.17,0.02-0.24c0.01-0.07,0.04-0.17,0.07-0.31l0.69-2.49
							c0.01-0.04,0.02-0.07,0.02-0.11c0.01-0.03,0.01-0.06,0.01-0.1c0-0.12-0.04-0.19-0.13-0.22c-0.09-0.03-0.25-0.04-0.51-0.04
							v-0.16c0.27-0.03,0.46-0.06,0.57-0.07c0.12-0.02,0.23-0.04,0.35-0.06c0.15-0.03,0.3-0.05,0.44-0.09
							C111.16,108.48,111.24,108.47,111.25,108.48z M110.8,107.27c-0.09-0.1-0.14-0.23-0.14-0.37c0-0.15,0.05-0.27,0.14-0.38
							c0.09-0.1,0.21-0.15,0.34-0.15c0.13,0,0.25,0.05,0.34,0.15c0.1,0.1,0.14,0.23,0.14,0.38c0,0.15-0.05,0.27-0.14,0.38
							c-0.09,0.1-0.21,0.15-0.34,0.15C111,107.43,110.89,107.38,110.8,107.27z"/>
						<path class="st3" d="M113.24,109.51c0.64-0.67,1.3-1.01,1.98-1.01c0.25,0,0.45,0.06,0.6,0.17c0.15,0.12,0.22,0.29,0.22,0.51
							c0,0.46-0.27,0.86-0.81,1.19c-0.54,0.33-1.11,0.53-1.71,0.61l-0.28,0.03c-0.04,0.13-0.07,0.24-0.09,0.32
							c-0.02,0.08-0.02,0.18-0.02,0.3c0,0.28,0.09,0.51,0.28,0.66c0.19,0.16,0.41,0.24,0.66,0.24c0.24,0,0.5-0.08,0.77-0.24
							c0.15-0.09,0.38-0.26,0.67-0.5l0.12,0.11c-0.14,0.18-0.35,0.37-0.62,0.57c-0.48,0.34-0.96,0.52-1.45,0.52
							c-0.34,0-0.64-0.12-0.9-0.36c-0.26-0.24-0.39-0.59-0.39-1.04C112.27,110.87,112.59,110.18,113.24,109.51z M114.8,110.15
							c0.39-0.34,0.58-0.68,0.58-1.02c0-0.12-0.03-0.22-0.09-0.29c-0.06-0.07-0.14-0.11-0.26-0.11c-0.21,0-0.41,0.09-0.62,0.27
							c-0.2,0.18-0.38,0.38-0.54,0.61c-0.17,0.26-0.31,0.52-0.41,0.76c-0.06,0.13-0.11,0.27-0.17,0.44
							C113.91,110.71,114.42,110.5,114.8,110.15z"/>
						<path class="st3" d="M120.64,107.06c-0.07,0.09-0.17,0.14-0.29,0.14c-0.11,0-0.2-0.03-0.27-0.1
							c-0.07-0.07-0.11-0.15-0.11-0.25c0-0.07,0.03-0.18,0.09-0.34c0-0.04-0.02-0.08-0.06-0.11c-0.04-0.03-0.08-0.04-0.13-0.04
							c-0.24,0-0.44,0.26-0.61,0.78c-0.09,0.3-0.19,0.81-0.31,1.52h1.08l-0.07,0.32h-1.1l-0.92,3.16c-0.19,0.84-0.46,1.51-0.79,2.03
							c-0.33,0.51-0.75,0.77-1.26,0.77c-0.24,0-0.43-0.06-0.58-0.19c-0.15-0.13-0.23-0.27-0.23-0.42c0-0.1,0.03-0.19,0.09-0.27
							c0.06-0.08,0.16-0.12,0.28-0.12c0.11,0,0.2,0.04,0.28,0.11c0.08,0.07,0.11,0.16,0.11,0.27c0,0.06-0.02,0.12-0.05,0.18
							c-0.04,0.06-0.05,0.1-0.05,0.12c0,0.03,0.02,0.05,0.06,0.07c0.04,0.02,0.09,0.03,0.14,0.03c0.27,0,0.51-0.22,0.7-0.65
							c0.1-0.23,0.19-0.54,0.28-0.93l1.15-4.15h-0.89l0.07-0.32h0.94c0.18-0.75,0.37-1.31,0.59-1.67c0.32-0.55,0.73-0.83,1.21-0.83
							c0.22,0,0.4,0.06,0.55,0.19c0.15,0.13,0.22,0.27,0.22,0.43C120.75,106.87,120.71,106.97,120.64,107.06z"/>
						<path class="st3" d="M122.68,110.84l0.19,0.02c0,0.11,0,0.18,0,0.2c0,0.5,0.14,0.91,0.42,1.21c0.28,0.31,0.62,0.46,1.02,0.46
							c0.41,0,0.72-0.14,0.94-0.41c0.22-0.27,0.33-0.57,0.33-0.9c0-0.12-0.02-0.25-0.06-0.39c-0.06-0.21-0.17-0.4-0.32-0.56
							l-0.62-0.68c-0.48-0.52-0.78-0.9-0.92-1.12c-0.14-0.23-0.2-0.47-0.2-0.74c0-0.41,0.15-0.78,0.45-1.13
							c0.3-0.34,0.75-0.51,1.33-0.51c0.26,0,0.53,0.05,0.81,0.13c0.28,0.09,0.44,0.13,0.5,0.13c0.11,0,0.19-0.03,0.26-0.09
							c0.07-0.06,0.12-0.12,0.17-0.19h0.23l-0.4,1.97l-0.17-0.02c-0.02-0.47-0.07-0.81-0.18-1.03c-0.19-0.38-0.54-0.57-1.06-0.57
							c-0.32,0-0.58,0.09-0.78,0.27c-0.2,0.18-0.3,0.41-0.3,0.68c0,0.22,0.04,0.41,0.14,0.56c0.09,0.15,0.26,0.36,0.52,0.64
							l0.89,0.96c0.16,0.17,0.3,0.37,0.41,0.59c0.11,0.22,0.16,0.48,0.16,0.77c0,0.51-0.18,0.97-0.54,1.37
							c-0.36,0.4-0.84,0.6-1.44,0.6c-0.31,0-0.63-0.06-0.95-0.18c-0.32-0.12-0.52-0.18-0.6-0.18c-0.12,0-0.2,0.03-0.25,0.08
							c-0.05,0.05-0.1,0.14-0.14,0.25h-0.17L122.68,110.84z"/>
						<path class="st3" d="M131.62,108.91c0.22,0.29,0.33,0.63,0.33,1.02c0,0.68-0.3,1.35-0.9,2.01c-0.62,0.68-1.29,1.03-1.99,1.03
							c-0.44,0-0.8-0.13-1.07-0.39c-0.27-0.26-0.4-0.62-0.4-1.09c0-0.71,0.3-1.38,0.9-2.03c0.61-0.66,1.28-0.99,1.99-0.99
							C131.02,108.48,131.4,108.62,131.62,108.91z M128.62,112.49c0.13,0.18,0.33,0.26,0.59,0.26c0.53,0,0.99-0.4,1.4-1.19
							c0.34-0.68,0.52-1.31,0.52-1.88c0-0.24-0.03-0.44-0.09-0.58c-0.11-0.28-0.32-0.42-0.62-0.42c-0.49,0-0.96,0.37-1.39,1.11
							c-0.41,0.69-0.61,1.37-0.61,2.04C128.42,112.1,128.49,112.32,128.62,112.49z"/>
						<path class="st3" d="M134.35,107c0.01-0.04,0.02-0.08,0.02-0.13c0-0.04,0-0.08,0-0.1c0-0.11-0.04-0.18-0.13-0.2
							c-0.09-0.02-0.26-0.03-0.53-0.03v-0.16c0.15-0.02,0.31-0.04,0.5-0.07c0.19-0.03,0.31-0.04,0.37-0.05
							c0.18-0.03,0.4-0.08,0.66-0.15c0.02,0,0.05,0.02,0.07,0.05l-1.61,5.81c-0.03,0.14-0.06,0.22-0.06,0.25
							c-0.01,0.03-0.01,0.06-0.01,0.09c0,0.06,0.01,0.11,0.03,0.16c0.02,0.04,0.07,0.07,0.13,0.07c0.12,0,0.27-0.1,0.46-0.31
							c0.19-0.21,0.34-0.41,0.47-0.6l0.13,0.09c-0.28,0.41-0.5,0.69-0.65,0.85c-0.27,0.27-0.54,0.4-0.81,0.4
							c-0.12,0-0.22-0.03-0.31-0.09c-0.14-0.09-0.21-0.24-0.21-0.44c0-0.08,0.01-0.19,0.04-0.32c0.02-0.08,0.04-0.17,0.07-0.28
							L134.35,107z"/>
						<path class="st3" d="M136.63,109.38c0.01-0.03,0.01-0.06,0.02-0.09c0-0.03,0.01-0.05,0.01-0.08c0-0.14-0.04-0.22-0.12-0.25
							c-0.08-0.03-0.24-0.05-0.46-0.05v-0.14l0.72-0.14l0.78-0.15c0.02,0,0.03,0,0.04,0.02c0.01,0.02,0.02,0.04,0.02,0.06
							l-0.02,0.08l-0.94,3.27c-0.02,0.08-0.04,0.14-0.05,0.19c-0.01,0.04-0.02,0.08-0.02,0.1c0,0.07,0.02,0.13,0.06,0.17
							c0.04,0.04,0.1,0.06,0.17,0.06c0.19,0,0.43-0.17,0.72-0.51c0.29-0.34,0.55-0.69,0.77-1.06c0.2-0.33,0.39-0.69,0.56-1.09
							c0.1-0.25,0.26-0.64,0.45-1.19h0.73l-0.95,3.43c-0.02,0.06-0.03,0.12-0.04,0.18c-0.01,0.05-0.02,0.1-0.02,0.14
							c0,0.04,0.01,0.08,0.03,0.11c0.02,0.03,0.05,0.05,0.1,0.05c0.05,0,0.1-0.02,0.15-0.06c0.05-0.04,0.11-0.09,0.19-0.17
							c0.03-0.04,0.1-0.11,0.19-0.23c0.06-0.07,0.14-0.18,0.26-0.32l0.14,0.09c-0.15,0.24-0.3,0.46-0.46,0.63
							c-0.32,0.35-0.61,0.53-0.88,0.53c-0.14,0-0.26-0.04-0.34-0.12c-0.09-0.08-0.14-0.2-0.14-0.36c0-0.08,0.01-0.17,0.02-0.27
							c0.02-0.1,0.04-0.21,0.08-0.34c0.06-0.22,0.14-0.51,0.23-0.85l0.13-0.46l-0.04,0c-0.45,0.75-0.8,1.28-1.06,1.6
							c-0.45,0.53-0.87,0.8-1.27,0.8c-0.11,0-0.21-0.02-0.29-0.07c-0.17-0.09-0.25-0.25-0.25-0.48c0-0.07,0-0.12,0.01-0.16
							c0.01-0.04,0.02-0.1,0.03-0.17L136.63,109.38z"/>
						<path class="st3" d="M140.95,112.46c0-0.03,0.01-0.07,0.02-0.1l0.93-3.37h-0.74c0-0.09,0.01-0.14,0.02-0.17
							c0.01-0.02,0.05-0.04,0.1-0.07c0.33-0.14,0.58-0.27,0.76-0.4c0.18-0.13,0.43-0.38,0.74-0.75l0.08-0.09
							c0.01-0.01,0.02-0.02,0.04-0.03c0.01-0.01,0.03-0.01,0.05-0.01c0.03,0.01,0.05,0.01,0.07,0.02c0.01,0.02,0.02,0.04,0.02,0.06
							c0,0.02,0,0.04,0,0.06l-0.28,1.05h0.8l-0.06,0.33h-0.83l-0.89,3.25c-0.02,0.06-0.01,0.11,0.02,0.17
							c0.03,0.05,0.07,0.08,0.13,0.08c0.08,0,0.2-0.08,0.35-0.25c0.09-0.09,0.23-0.27,0.44-0.54l0.12,0.07l-0.07,0.1
							c-0.28,0.42-0.52,0.7-0.73,0.87c-0.21,0.16-0.41,0.24-0.6,0.24c-0.16,0-0.28-0.04-0.36-0.13c-0.07-0.09-0.11-0.19-0.11-0.29
							C140.94,112.52,140.95,112.49,140.95,112.46z"/>
						<path class="st3" d="M145.77,108.48c0.02,0.01,0.02,0.02,0.02,0.04l-0.98,3.45c-0.05,0.18-0.07,0.29-0.07,0.33
							c0,0.05,0.01,0.09,0.03,0.13c0.02,0.04,0.06,0.06,0.12,0.06c0.11,0,0.26-0.1,0.44-0.29c0.11-0.11,0.24-0.27,0.39-0.48
							l0.13,0.11l-0.05,0.07c-0.24,0.34-0.44,0.58-0.6,0.73c-0.25,0.23-0.49,0.35-0.73,0.35c-0.14,0-0.25-0.06-0.34-0.17
							c-0.09-0.12-0.14-0.25-0.14-0.41c0-0.09,0.01-0.17,0.02-0.24c0.01-0.07,0.04-0.17,0.07-0.31l0.69-2.49
							c0.01-0.04,0.02-0.07,0.02-0.11c0.01-0.03,0.01-0.06,0.01-0.1c0-0.12-0.04-0.19-0.13-0.22c-0.09-0.03-0.25-0.04-0.51-0.04
							v-0.16c0.27-0.03,0.46-0.06,0.57-0.07c0.12-0.02,0.23-0.04,0.35-0.06c0.15-0.03,0.3-0.05,0.44-0.09
							C145.68,108.48,145.75,108.47,145.77,108.48z M145.31,107.27c-0.09-0.1-0.14-0.23-0.14-0.37c0-0.15,0.05-0.27,0.14-0.38
							c0.09-0.1,0.21-0.15,0.34-0.15c0.13,0,0.25,0.05,0.34,0.15c0.1,0.1,0.14,0.23,0.14,0.38c0,0.15-0.05,0.27-0.14,0.38
							c-0.09,0.1-0.21,0.15-0.34,0.15C145.52,107.43,145.41,107.38,145.31,107.27z"/>
						<path class="st3" d="M150.77,108.91c0.22,0.29,0.33,0.63,0.33,1.02c0,0.68-0.3,1.35-0.9,2.01c-0.62,0.68-1.29,1.03-1.99,1.03
							c-0.45,0-0.8-0.13-1.07-0.39c-0.27-0.26-0.4-0.62-0.4-1.09c0-0.71,0.3-1.38,0.9-2.03c0.61-0.66,1.28-0.99,1.99-0.99
							C150.16,108.48,150.55,108.62,150.77,108.91z M147.77,112.49c0.13,0.18,0.33,0.26,0.59,0.26c0.53,0,0.99-0.4,1.4-1.19
							c0.34-0.68,0.52-1.31,0.52-1.88c0-0.24-0.03-0.44-0.09-0.58c-0.11-0.28-0.32-0.42-0.62-0.42c-0.49,0-0.96,0.37-1.39,1.11
							c-0.41,0.69-0.61,1.37-0.61,2.04C147.57,112.1,147.64,112.32,147.77,112.49z"/>
						<path class="st3" d="M151.8,112.87l0.83-2.99c0.07-0.25,0.11-0.41,0.12-0.46c0.01-0.05,0.02-0.11,0.02-0.17
							c0-0.09-0.03-0.17-0.08-0.22c-0.05-0.05-0.16-0.08-0.31-0.08c-0.04,0-0.08,0-0.11,0.01c-0.04,0-0.08,0.01-0.12,0.02v-0.16
							c0.21-0.03,0.36-0.06,0.44-0.07c0.09-0.02,0.18-0.03,0.29-0.06l0.86-0.19c0.02,0.01,0.03,0.03,0.04,0.04l-0.64,2.08
							c0.4-0.6,0.73-1.05,0.99-1.34c0.47-0.52,0.89-0.78,1.26-0.78c0.14,0,0.27,0.03,0.37,0.08c0.2,0.11,0.3,0.3,0.3,0.58
							c0,0.08-0.01,0.16-0.02,0.24c-0.02,0.08-0.04,0.17-0.06,0.27l-0.64,2.32c-0.01,0.05-0.03,0.11-0.04,0.18
							c-0.02,0.07-0.02,0.12-0.02,0.15c0,0.05,0.01,0.09,0.03,0.13c0.02,0.04,0.06,0.06,0.11,0.06c0.08,0,0.17-0.05,0.28-0.15
							s0.28-0.31,0.51-0.63l0.14,0.13c-0.26,0.36-0.46,0.61-0.62,0.75c-0.26,0.25-0.51,0.38-0.74,0.38c-0.11,0-0.21-0.04-0.31-0.11
							c-0.1-0.07-0.15-0.2-0.15-0.39c0-0.05,0-0.11,0.01-0.17c0.01-0.06,0.02-0.12,0.03-0.16l0.62-2.35
							c0.03-0.13,0.05-0.23,0.07-0.32c0.01-0.08,0.02-0.14,0.02-0.18c0-0.08-0.02-0.14-0.06-0.2c-0.04-0.06-0.1-0.09-0.2-0.09
							c-0.25,0-0.55,0.22-0.93,0.66c-0.22,0.26-0.44,0.57-0.67,0.93c-0.17,0.28-0.3,0.55-0.4,0.82c-0.1,0.27-0.25,0.75-0.46,1.45
							H151.8z"/>
					</g>
				</g>
			</g>
		</g>
	</g>
	<g>
		<path class="st4" d="M140.77,19.84c0.03-0.04,0.06-0.07,0.09-0.11c-0.33-0.25-0.68-0.48-0.99-0.75c-0.13-0.11-0.23-0.3-0.28-0.47
			c-0.24-0.76-0.45-1.52-0.68-2.28c-0.29-0.95-0.92-1.15-1.75-0.63c-0.22,0.14-0.6,0.02-1.09,0.02c-0.5,1.04-0.87,2.27-0.82,3.67
			c0.03,0.88-0.24,1.63-1.04,2.36c-0.33,0.3-0.67,0.52-1.03,0.71c-1.43,0.78-3.04,0.86-4.57,1.28c-0.43,0.12-0.85,0.45-1.16,0.79
			c-0.46,0.49-0.83,1.07-1.19,1.64c-0.1,0.17-0.1,0.51,0,0.69c0.46,0.8,0.41,1.31-0.43,1.66c-0.77,0.32-1.63,0.41-2.45,0.59
			c-0.57,0.13-1.15,0.25-1.68,0.36c-0.01,0.2-0.04,0.27-0.02,0.3c0.06,0.08,0.1,0.15,0.15,0.22c0.49,0.79,0.01,1.4-0.63,1.87
			c-1.5,1.09-3,2.2-4.62,3.1c-0.49,0.28-1.35-0.11-2.05-0.19c-0.05-0.11-0.1-0.21-0.15-0.32c0.45-0.71,0.9-1.42,1.35-2.13
			c0.03-0.05,0.06-0.09,0.08-0.14c0.14-0.37-0.07-1.39-0.38-2.2c-0.2-0.51-0.44-0.94-0.67-1.06c-0.19-0.1-0.62,0.08-0.84,0.25
			c-0.26,0.21-0.42,0.53-0.61,0.81c-0.01,0.02-0.02,0.03-0.03,0.05c-0.04-0.02-0.08-0.03-0.12-0.05c-0.07-0.03-0.14-0.06-0.21-0.08
			c0.06-0.26,0.1-0.52,0.19-0.76c0.17-0.49,0.44-0.96,0.53-1.46c0.07-0.39-0.01-0.83-0.12-1.22c-0.08-0.29-0.26-0.65-0.5-0.77
			c-0.53-0.27-1.12-0.46-1.7-0.61c-0.56-0.15-0.99-0.05-1.12,0.68c-0.1,0.57-0.35,1.12-0.69,1.63c0.07-0.29,0.14-0.58,0.2-0.87
			c-0.04-0.04-0.09-0.08-0.13-0.12c-0.15,0.13-0.37,0.23-0.46,0.4c-0.53,1.04-0.95,2.09-0.9,3.19c0.03,0.5,0.14,1.01,0.41,1.54
			c0.56,1.12,0.32,2.81-0.45,3.65c-0.59,0.64-0.84,0.63-1.33-0.08c-0.76-1.09-0.97-2.34-0.83-3.61c0.05-0.5,0.12-1,0.2-1.5
			c0.15-1.03,0.34-2.07,0.51-3.19c-0.37,0.5-0.67,0.91-0.97,1.32c-0.05-0.03-0.11-0.06-0.16-0.08c0.39-0.85,0.78-1.71,1.17-2.56
			c0.02-0.05,0.06-0.1,0.1-0.12c1.09-0.29,2.18-0.62,3.29-0.85c0.58-0.12,1.2-0.09,1.83-0.12c-0.14-0.48-0.26-0.9-0.38-1.32
			c-0.53-0.22-1.44,0.94-1.63-0.61c0,0,0,0,0-0.01c0,0-0.01,0-0.01,0.01c-0.76,0.28-1.46,0.55-2.16,0.81
			c-0.79,0.29-1.56,0.7-2.25-0.28c-0.19-0.28-0.78-0.28-1.28-0.43c0.02-0.03,0.04-0.06,0.07-0.09c0.26-0.34,0.53-0.71,0.84-1.14
			c-0.85-0.06-1.24,0.48-1.72,0.92c-0.08,0.08-0.17,0.15-0.25,0.22c-0.88,0.74-1.88,1.27-3.16,1.32c0.07-0.32,0.11-0.49,0.18-0.83
			c-0.68,0.24-1.26,0.44-1.94,0.68c0.21-0.45,0.46-0.83,0.74-1.18c0.8-0.97,1.85-1.57,3.06-1.99c-0.04-0.12-0.07-0.25-0.11-0.37
			c-0.87-0.02-1.75-0.02-2.62-0.07c-0.44-0.03-0.87-0.13-1.29-0.25c-0.93-0.26-1.74-1-2.83-0.66c-0.69,0.22-1.77-0.52-1.96-1.21
			c-0.08-0.28-0.28-0.53-0.56-0.78c-0.04,1.05-0.68,0.98-1.35,0.99c-1.63,0.02-3.25,0.01-4.88-0.03
			c-12.06-0.3-23.92-2.25-35.64-5.18c-1.08-0.27-2.14-0.6-3.22-0.9h-0.33c0.1,0.73,0.2,1.46,0.3,2.19
			c-0.09,0.01-0.17,0.02-0.25,0.03c-0.04-0.23-0.07-0.46-0.11-0.72c-1.44,0.93-2.2-0.67-3.44-0.9c-0.03,0.55-0.15,1.08-0.06,1.57
			c0.44,2.35-0.32,4.5-1.17,6.6c-0.65,1.59-1.57,3.06-2.27,4.63c-0.1,0.22-0.18,0.46-0.25,0.71c0,0-0.11,0.36-0.14,0.66
			c-0.03,0.26-0.05,0.52,0,0.76c0.31,1.75-0.59,2.98-1.5,4.24v0.33c0.72,0.36,0.74,1,0.54,1.62c-0.34,1.1-0.26,2.04,0.34,3.11
			c0.44,0.8,0.74,1.79,0.68,2.85c-0.04,0.66,0.4,1.34,0.67,2.15c-0.6,0.45-0.34,1.17,0.01,1.88c0.22,0.44,0.48,0.86,0.72,1.29
			c0.41,0.73,0.74,1.46,0.36,2.34c-0.2,0.46,0,0.72,0.54,0.86c0.53,0.14,1.08,0.4,1.51,0.75c0.95,0.78,1.92,1.59,2.71,2.52
			c0.26,0.31,0.46,0.72,0.59,1.14h-0.01c0.09,0.28,0.16,0.57,0.19,0.85c0.07,0.67,0.31,0.92,0.9,0.99c1.3,0.17,2.6,0.36,3.85,0.53
			c0.12,0.24,0.17,0.52,0.33,0.62c1.88,1.17,3.74,2.38,5.71,3.31c0.09,0.04,0.18,0.08,0.26,0.12c0.32,0.15,0.64,0.28,0.97,0.41
			c0.16,0.06,0.33,0.12,0.5,0.18c0.26,0.09,0.52,0.18,0.78,0.26c0.2,0.06,0.4,0.11,0.6,0.17c0.12,0.03,0.23,0.07,0.35,0.1
			c0.19,0.04,0.38,0.07,0.57,0.11c0.1,0.02,0.2,0.04,0.3,0.06c0.41,0.07,0.83,0.11,1.26,0.14c0.11,0.01,0.23,0.01,0.34,0.02
			c0.45,0.02,0.9,0.02,1.37-0.02c0.01,0,0.01,0,0.02,0c0.16-0.48,0.24-0.69,0.42-0.78c0.01,0,0.01-0.01,0.02-0.01
			c0.04-0.02,0.08-0.03,0.12-0.03c0.02,0,0.03-0.01,0.05-0.01c0.04,0,0.08,0,0.13,0c0.04,0,0.07,0,0.11,0c0.01,0,0.03,0,0.05,0
			c0.15,0.01,0.34,0.02,0.58,0.03c0.01,0,0.02,0,0.04,0c0.26,0.01,0.49,0.06,0.73,0.11c0.34,0.09,0.63,0.21,0.97,0.39h0.2
			c0.63,0.33,1.19,0.81,1.75,1.46c0.98,1.14,1.94,2.07,2.1,3.68c0.05,0.51,0.85,1,1.39,1.38c0.48,0.34,1.11,0.79,1.59,0.71
			c0.39-0.06,0.67-0.84,0.98-1.31c0.32-0.48,0.75-0.68,1.33-0.58c1.44,0.25,2.54,0.97,3.1,2.2c0.09,0.19,0.17,0.39,0.23,0.61
			c0.35,1.25,1.23,2.08,1.93,3.07c0.14,0.2,0.27,0.46,0.27,0.7c0,0.56,0.13,1.06,0.37,1.48c0.25,0.42,0.61,0.76,1.11,0.99
			c0.25,0.12,0.51,0.23,0.78,0.34c0.26,0.11,0.53,0.2,0.79,0.3c0.04,0.01,0.08,0.03,0.11,0.04c0.51,0.18,1.02,0.36,1.52,0.55
			c0,0,0,0,0,0l0,0c0.01-1.14,0.02-2.72-0.01-3.74c-0.02-0.8,0.29-1.27,0.99-1.71c1.34-0.83,2.61-1.77,3.93-2.63h0
			c0.44-0.29,0.88-0.57,1.33-0.84c0.71-0.42,1.65-0.54,2.5-0.6c0.81-0.05,1.63,0.16,2.45,0.24c0.34,0.04,0.68,0.05,1.06-0.1
			c-0.2-0.09-0.39-0.17-0.59-0.25c0.73-0.23,1.25,0.21,1.59,0.68c0.64,0.86,0.91,0.98,1.83,0.39c0.09-0.06,0.2-0.07,0.34-0.11
			c0.05,0.16,0.1,0.31,0.2,0.6c0.01,0.03,0.02,0.05,0.03,0.08c0.01-0.03,0.03-0.05,0.04-0.08c0.24-0.45,0.41-0.78,0.55-1.03
			c0.56,0.23,1.07,0.47,1.6,0.64c0.11,0.04,0.3-0.16,0.62-0.34c-0.63-0.28-1.1-0.49-1.5-0.67c0.21-0.49,0.38-0.9,0.55-1.3
			c-0.07-0.04-0.14-0.09-0.21-0.13c-0.21,0.13-0.42,0.25-0.63,0.38c-0.06-0.06-0.11-0.13-0.17-0.2c0.37-0.27,0.71-0.64,1.12-0.79
			c0.42-0.16,0.91-0.13,1.38-0.17c0.52-0.04,1.12,0.04,1.04-0.92c0.07,0.03,0.15,0.06,0.22,0.1c0.15,0.28,0.3,0.56,0.43,0.81
			c0.99-0.12,1.99-0.28,2.99-0.34c0.85-0.05,1.61,0.23,2.2,0.91c0.4,0.45,1.42,0.27,2.05-0.32c0.66-0.62,1.1-0.62,1.81-0.06
			c0.66,0.51,1.38,0.95,1.98,1.51c0.25,0.24,0.44,0.76,0.38,1.1c-0.05,0.29-0.07,0.57-0.06,0.83c0.05,1.61,1.14,2.82,1.89,4.17
			c1.02,0.01,0.95,1.37,1.97,1.55c0.46,0.08,0.79,0.95,1.2,1.48c0.43-0.1,0.92-0.2,1.61-0.36c0.13-1.28,0.39-2.75-0.17-4.19
			c-0.32-0.84-0.81-1.61-1.18-2.44c-0.03-0.07-0.04-0.14-0.07-0.2c-0.13-0.37-0.21-0.75-0.36-1.12c-0.09-0.22-0.26-0.41-0.42-0.58
			c-1.23-1.35-2.1-2.88-2.35-4.71c-0.05-0.38-0.07-0.76-0.06-1.13c0.04-0.87,0.29-1.7,0.92-2.43c0.45-0.52,0.92-1.04,1.35-1.58
			c0.61-0.77,1.44-1.35,1.59-2.49c0.07-0.54,0.43-0.84,0.89-1.03c0.31-0.13,0.65-0.22,1-0.3c-0.1-1.99,2.25-1.78,2.99-3.2
			c-0.28-0.02-0.47-0.03-0.71-0.04c0.03-0.27,0.05-0.52,0.07-0.76c1.49-0.39,1.77-1.04,1.04-2.37c-0.15-0.28-0.3-0.57-0.44-0.86
			c-0.08-0.15-0.15-0.31-0.24-0.45c-0.11-0.19-0.35-0.31-0.48-0.49c-0.23-0.34-0.47-0.68-0.62-1.05c-0.16-0.39-0.2-0.84-0.35-1.24
			c-0.24-0.67-0.58-1.3-0.78-1.98c-0.11-0.41-0.02-0.87-0.02-1.31c0.09,0,0.18,0,0.28,0c0.07,0.55,0.07,1.12,0.23,1.64
			c0.16,0.51,0.48,0.96,0.88,1.38c0.02-0.16,0.03-0.32,0.05-0.48c0.08,0,0.16,0,0.24,0c0,0.82,0,1.64,0,2.46c0.11,0,0.21,0,0.32,0
			c0.43-1.81,2.04-3.63-0.4-5.42c0.09-0.04,0.19-0.09,0.28-0.13c0.34,0.16,0.68,0.33,1.1,0.53c0.27-0.3,0.48-0.63,0.65-0.98
			c0.34-0.74,0.46-1.58,0.31-2.48c-0.23-1.41,0.02-2.04,1.39-2.71c0.79-0.39,1.63-0.65,2.42-1.04c0.41-0.2,0.74-0.56,1.17-0.9
			c0.12,0.06,0.84-0.17,1.15-0.41c0.09-0.07,0.15-0.15,0.15-0.22c-0.01-0.33-0.6-0.03-0.75-0.06c-0.39-0.06-1.39-1.42-1.37-1.82
			c0-0.16,0.02-0.33,0.03-0.49c0.13-2.37,0.23-2.53,2.3-3.74c0.15-0.09,0.27-0.24,0.39-0.37c0.25-0.28,0.48-0.58,0.74-0.84
			c0.06-0.07,0.12-0.14,0.19-0.2c0.38-0.33,0.83-0.58,1.25-0.87c0-0.44,0-0.88,0-1.32C141.29,19.92,141.03,19.88,140.77,19.84z"/>
		<path class="st0" d="M85.55,17.98c-12.06-0.3-23.92-2.25-35.64-5.18c-1.08-0.27-2.14-0.6-3.22-0.9h-0.33
			c0.1,0.73,0.2,1.46,0.3,2.19c-0.09,0.01-0.17,0.02-0.25,0.03c-0.04-0.23-0.07-0.46-0.11-0.72c-1.44,0.93-2.2-0.67-3.44-0.9
			c-0.03,0.55-0.15,1.08-0.06,1.57c0.44,2.35-0.32,4.5-1.17,6.6c-0.65,1.59-1.57,3.06-2.27,4.63c-0.1,0.22-0.18,0.46-0.25,0.71
			c0,0-0.11,0.36-0.14,0.66c-0.03,0.26-0.05,0.52,0,0.76c0.31,1.75-0.59,2.98-1.5,4.24v0.33c0.72,0.36,0.74,1,0.54,1.62
			c-0.34,1.1-0.26,2.04,0.34,3.11c0.44,0.8,0.74,1.79,0.68,2.85c-0.04,0.66,0.4,1.34,0.67,2.15c-0.6,0.45-0.34,1.17,0.01,1.88
			c0.22,0.44,0.48,0.86,0.72,1.29c0.41,0.73,0.74,1.46,0.36,2.34c-0.2,0.46,0,0.72,0.54,0.86c0.53,0.14,1.08,0.4,1.51,0.75
			c0.95,0.78,1.92,1.59,2.71,2.52c0.26,0.31,0.46,0.72,0.59,1.14h39.42V17.98z"/>
		<g>
			<g>
				<g>
					<g>
						<g>
							<g>
								<path class="st1" d="M139.3,22.15c0.38-0.33,0.83-0.58,1.25-0.87c0-0.44,0-0.88,0-1.32c-0.26-0.04-0.52-0.08-0.78-0.13
									c0.03-0.04,0.06-0.07,0.09-0.11c-0.33-0.25-0.68-0.48-0.99-0.75c-0.13-0.11-0.23-0.3-0.28-0.47
									c-0.24-0.76-0.45-1.52-0.68-2.28c-0.29-0.95-0.92-1.15-1.75-0.63c-0.22,0.14-0.6,0.02-1.09,0.02
									c-0.5,1.04-0.87,2.27-0.82,3.67c0.03,0.88-0.24,1.63-1.04,2.36c-0.33,0.3-0.67,0.52-1.03,0.71h6.92
									C139.17,22.29,139.23,22.21,139.3,22.15z"/>
								<path class="st1" d="M120.21,31.76c-1.5,1.09-3,2.2-4.62,3.1c-0.49,0.28-1.35-0.11-2.05-0.19c-0.05-0.11-0.1-0.21-0.15-0.32
									c0.45-0.71,0.9-1.42,1.35-2.13c0.03-0.05,0.06-0.09,0.08-0.14c0.14-0.37-0.07-1.39-0.38-2.2h-2.13
									c-0.01,0.02-0.02,0.03-0.03,0.05c-0.04-0.02-0.08-0.03-0.12-0.05h-4.88c0.02,0.5,0.14,1.01,0.41,1.54
									c0.56,1.12,0.32,2.81-0.45,3.65c-0.59,0.64-0.84,0.63-1.33-0.08c-0.76-1.09-0.97-2.34-0.83-3.61c0.05-0.5,0.12-1,0.2-1.5
									H85.55v7.54h45.61c0.34-0.74,0.46-1.58,0.31-2.48c-0.23-1.41,0.02-2.04,1.39-2.71c0.79-0.39,1.63-0.65,2.42-1.04
									c0.41-0.2,0.74-0.56,1.17-0.9c0.12,0.06,0.84-0.17,1.15-0.41h-16.78C121.33,30.69,120.85,31.3,120.21,31.76z"/>
								<path class="st1" d="M85.55,52.5h40.52c0.31-0.13,0.65-0.22,1-0.3c-0.1-1.99,2.25-1.78,2.99-3.2
									c-0.28-0.02-0.47-0.03-0.71-0.04c0.03-0.27,0.05-0.52,0.07-0.76c1.49-0.39,1.77-1.04,1.04-2.37
									c-0.15-0.28-0.3-0.57-0.44-0.86H85.55V52.5z"/>
								<path class="st1" d="M85.55,67.58h6.54c0.44-0.29,0.88-0.57,1.33-0.84c0.71-0.42,1.65-0.54,2.5-0.6
									c0.81-0.05,1.63,0.16,2.45,0.24c0.34,0.04,0.68,0.05,1.06-0.1c-0.2-0.09-0.39-0.17-0.59-0.25c0.73-0.23,1.25,0.21,1.59,0.68
									c0.64,0.86,0.91,0.98,1.83,0.39c0.09-0.06,0.2-0.07,0.34-0.11c0.05,0.16,0.1,0.31,0.2,0.6h0.07
									c0.24-0.45,0.41-0.78,0.55-1.03c0.56,0.23,1.07,0.47,1.6,0.64c0.11,0.04,0.3-0.16,0.62-0.34c-0.63-0.28-1.1-0.49-1.5-0.67
									c0.21-0.49,0.38-0.9,0.55-1.3c-0.07-0.04-0.14-0.09-0.21-0.13c-0.21,0.13-0.42,0.25-0.63,0.38
									c-0.06-0.06-0.11-0.13-0.17-0.2c0.37-0.27,0.71-0.64,1.12-0.79c0.42-0.16,0.91-0.13,1.38-0.17
									c0.52-0.04,1.12,0.04,1.04-0.92c0.07,0.03,0.15,0.06,0.22,0.1c0.15,0.28,0.3,0.56,0.43,0.81c0.99-0.12,1.99-0.28,2.99-0.34
									c0.85-0.05,1.61,0.23,2.2,0.91c0.4,0.45,1.42,0.27,2.05-0.32c0.66-0.62,1.1-0.62,1.81-0.06c0.66,0.51,1.38,0.95,1.98,1.51
									c0.25,0.24,0.44,0.76,0.38,1.1c-0.05,0.29-0.07,0.57-0.06,0.83h5.26c-0.13-0.37-0.22-0.75-0.36-1.12
									c-0.09-0.22-0.26-0.41-0.42-0.58c-1.23-1.35-2.1-2.88-2.35-4.71c-0.05-0.38-0.07-0.76-0.06-1.13H85.55V67.58z"/>
							</g>
							<g>
								<g>
									<path class="st1" d="M109.02,22.35c0,0-0.01,0-0.01,0.01L109.02,22.35C109.02,22.35,109.02,22.35,109.02,22.35z"/>
									<path class="st5" d="M126.46,24.42c-0.46,0.49-0.83,1.07-1.19,1.64c-0.1,0.17-0.1,0.51,0,0.69
										c0.46,0.8,0.41,1.31-0.43,1.66c-0.77,0.32-1.63,0.41-2.45,0.59c-0.57,0.13-1.15,0.25-1.68,0.36
										c-0.01,0.2-0.04,0.27-0.02,0.3c0.06,0.08,0.1,0.15,0.15,0.22h16.78c0.09-0.07,0.15-0.15,0.15-0.22
										c-0.01-0.33-0.6-0.03-0.75-0.06c-0.39-0.06-1.39-1.42-1.37-1.82c0-0.16,0.02-0.33,0.03-0.49c0.13-2.37,0.23-2.53,2.3-3.74
										c0.15-0.09,0.27-0.24,0.39-0.37c0.25-0.28,0.48-0.58,0.74-0.84h-6.92c-1.43,0.78-3.04,0.86-4.57,1.28
										C127.19,23.75,126.77,24.08,126.46,24.42z"/>
									<path class="st5" d="M113.77,28.83c-0.19-0.1-0.62,0.08-0.84,0.25c-0.26,0.21-0.42,0.53-0.61,0.81h2.13
										C114.24,29.38,113.99,28.95,113.77,28.83z"/>
									<g>
										<path class="st5" d="M112.67,27.59c0.07-0.39-0.01-0.83-0.12-1.22c-0.08-0.29-0.26-0.65-0.5-0.77
											c-0.53-0.27-1.12-0.46-1.7-0.61c-0.56-0.15-0.99-0.05-1.12,0.68c-0.1,0.57-0.35,1.12-0.69,1.63
											c0.07-0.29,0.14-0.58,0.2-0.87c-0.04-0.04-0.09-0.08-0.13-0.12c-0.15,0.13-0.37,0.23-0.46,0.4
											c-0.53,1.04-0.95,2.09-0.9,3.19h4.88c-0.07-0.03-0.14-0.06-0.21-0.08c0.06-0.26,0.1-0.52,0.19-0.76
											C112.31,28.56,112.57,28.09,112.67,27.59z"/>
										<path class="st5" d="M111.02,24.29c-0.14-0.48-0.26-0.9-0.38-1.32c-0.53-0.22-1.44,0.94-1.63-0.61h-0.02
											c-0.76,0.28-1.46,0.55-2.16,0.81c-0.79,0.29-1.56,0.7-2.25-0.28c-0.19-0.28-0.78-0.28-1.28-0.43
											c0.02-0.03,0.04-0.06,0.07-0.09c0.26-0.34,0.53-0.71,0.84-1.14c-0.85-0.06-1.24,0.48-1.72,0.92
											c-0.08,0.08-0.17,0.15-0.25,0.22c-0.88,0.74-1.88,1.27-3.16,1.32c0.07-0.32,0.11-0.49,0.18-0.83
											c-0.68,0.24-1.26,0.44-1.94,0.68c0.21-0.45,0.46-0.83,0.74-1.18c0.8-0.97,1.85-1.57,3.06-1.99
											c-0.04-0.12-0.07-0.25-0.11-0.37c-0.87-0.02-1.75-0.02-2.62-0.07c-0.44-0.03-0.87-0.13-1.29-0.25
											c-0.93-0.26-1.74-1-2.83-0.66c-0.69,0.22-1.77-0.52-1.96-1.21c-0.08-0.28-0.28-0.53-0.56-0.78
											c-0.04,1.05-0.68,0.98-1.35,0.99c-1.63,0.02-3.25,0.01-4.88-0.03v4.38v7.54h19.71c0.15-1.03,0.34-2.07,0.51-3.19
											c-0.37,0.5-0.67,0.91-0.97,1.32c-0.05-0.03-0.11-0.06-0.16-0.08c0.39-0.85,0.78-1.71,1.17-2.56
											c0.02-0.05,0.06-0.1,0.1-0.12c1.09-0.29,2.18-0.62,3.29-0.85C109.78,24.29,110.39,24.33,111.02,24.29z"/>
									</g>
									<path class="st5" d="M85.55,44.97h44.47c-0.08-0.15-0.15-0.31-0.24-0.45c-0.11-0.19-0.35-0.31-0.48-0.49
										c-0.23-0.34-0.47-0.68-0.62-1.05c-0.16-0.39-0.2-0.84-0.35-1.24c-0.24-0.67-0.58-1.3-0.78-1.98
										c-0.11-0.41-0.02-0.87-0.02-1.31c0.09,0,0.18,0,0.28,0c0.07,0.55,0.07,1.12,0.23,1.64c0.16,0.51,0.48,0.96,0.88,1.38
										c0.02-0.16,0.03-0.32,0.05-0.48c0.08,0,0.16,0,0.24,0c0,0.82,0,1.64,0,2.46c0.11,0,0.21,0,0.32,0
										c0.43-1.81,2.04-3.63-0.4-5.42c0.09-0.04,0.19-0.09,0.28-0.13c0.34,0.16,0.68,0.33,1.1,0.53c0.27-0.3,0.48-0.63,0.65-0.98
										H85.55V44.97z"/>
									<path class="st1" d="M85.55,60.04h35.76c0.04-0.87,0.29-1.7,0.92-2.43c0.45-0.52,0.92-1.04,1.35-1.58
										c0.61-0.77,1.44-1.35,1.59-2.49c0.07-0.54,0.43-0.84,0.89-1.03H85.55V60.04z"/>
									<path class="st1" d="M85.55,67.58v7.5c0.04,0.01,0.08,0.03,0.11,0.04c0.51,0.18,1.02,0.36,1.52,0.55c0,0,0,0,0,0l0,0
										c0.01-1.14,0.02-2.72-0.01-3.74c-0.02-0.8,0.29-1.27,0.99-1.71c1.34-0.83,2.61-1.77,3.93-2.64H85.55z"/>
									<path class="st1" d="M102.84,67.65c0.01-0.03,0.03-0.05,0.04-0.08h-0.07C102.82,67.6,102.83,67.62,102.84,67.65z"/>
									<path class="st5" d="M121.13,71.75c1.02,0.01,0.95,1.37,1.97,1.55c0.46,0.08,0.79,0.95,1.2,1.48
										c0.43-0.1,0.92-0.2,1.61-0.36c0.13-1.28,0.39-2.75-0.17-4.19c-0.32-0.84-0.81-1.61-1.18-2.44
										c-0.03-0.07-0.04-0.14-0.07-0.2h-5.26C119.29,69.19,120.38,70.4,121.13,71.75z"/>
								</g>
							</g>
							<g>
								<polygon class="st6" points="52.99,43.28 53.71,45.46 55.89,45.51 54.15,46.9 54.79,49.11 52.99,47.78 51.2,49.11 
									51.84,46.9 50.1,45.51 52.28,45.46 								"/>
							</g>
							<g>
								<polygon class="st6" points="46.91,31.14 47.71,33.56 50.14,33.61 48.2,35.15 48.9,37.61 46.91,36.14 44.92,37.61 
									45.63,35.15 43.69,33.61 46.12,33.56 								"/>
								<polygon class="st6" points="60.42,31.46 61.14,33.64 63.32,33.69 61.58,35.08 62.21,37.29 60.42,35.96 58.63,37.29 
									59.27,35.08 57.52,33.69 59.71,33.64 								"/>
							</g>
							<g>
								<polygon class="st6" points="52.99,18.83 53.91,21.62 56.71,21.67 54.47,23.45 55.29,26.28 52.99,24.59 50.7,26.28 
									51.52,23.45 49.28,21.67 52.08,21.62 								"/>
								<polygon class="st0" points="34.27,15.72 35.25,18.69 38.23,18.75 35.85,20.65 36.72,23.66 34.27,21.86 31.83,23.66 
									32.7,20.65 30.32,18.75 33.3,18.69 								"/>
								<polygon class="st0" points="40.09,0 41.26,3.57 44.84,3.64 41.99,5.91 43.03,9.54 40.09,7.37 37.16,9.54 38.2,5.91 
									35.35,3.64 38.92,3.57 								"/>
								<polygon class="st6" points="66.5,21.55 67.03,23.16 68.65,23.2 67.36,24.22 67.83,25.86 66.5,24.88 65.18,25.86 
									65.65,24.22 64.36,23.2 65.98,23.16 								"/>
								<polygon class="st6" points="67.8,43.79 68.34,45.43 69.98,45.46 68.67,46.5 69.15,48.16 67.8,47.17 66.46,48.16 
									66.94,46.5 65.63,45.46 67.27,45.43 								"/>
								<polygon class="st6" points="73.93,32.22 74.46,33.83 76.08,33.86 74.78,34.89 75.25,36.53 73.93,35.55 72.6,36.53 
									73.07,34.89 71.78,33.86 73.4,33.83 								"/>
								<polygon class="st6" points="79.42,22.71 79.84,24 81.14,24.02 80.1,24.85 80.48,26.16 79.42,25.37 78.36,26.16 
									78.73,24.85 77.7,24.02 79,24 								"/>
								<polygon class="st6" points="79.42,44.25 79.84,45.54 81.14,45.57 80.1,46.39 80.48,47.7 79.42,46.92 78.36,47.7 
									78.73,46.39 77.7,45.57 79,45.54 								"/>
							</g>
						</g>
					</g>
				</g>
			</g>
			<path class="st5" d="M46.12,52.5c0.09,0.28,0.16,0.57,0.19,0.85c0.07,0.67,0.31,0.92,0.9,0.99c1.3,0.17,2.6,0.36,3.85,0.53
				c0.12,0.24,0.17,0.52,0.33,0.62c2.94,1.83,5.83,3.78,9.17,4.54c1.22,0.28,2.49,0.4,3.85,0.3c0.04-0.12,0.07-0.21,0.1-0.3
				c0.23-0.64,0.35-0.55,1.38-0.5c0.74,0.04,1.18,0.21,1.74,0.5h53.67c0.04-0.88,0.29-1.7,0.92-2.43c0.45-0.52,0.92-1.04,1.35-1.58
				c0.61-0.77,1.44-1.35,1.59-2.49c0.07-0.54,0.43-0.84,0.89-1.03H46.12z"/>
		</g>
		<g>
			<path class="st1" d="M98.08,22.35c0.8-0.97,1.85-1.57,3.06-1.99c-0.04-0.12-0.07-0.25-0.11-0.37c-0.87-0.02-1.75-0.02-2.62-0.07
				c-0.44-0.03-0.87-0.13-1.29-0.25c-0.93-0.26-1.74-1-2.83-0.66c-0.69,0.22-1.77-0.52-1.96-1.21c-0.08-0.28-0.28-0.53-0.56-0.78
				c-0.04,1.05-0.68,0.98-1.35,0.99c-1.63,0.02-3.25,0.01-4.88-0.03v4.38H98.08z"/>
			<path class="st5" d="M104.23,21.22c-0.85-0.06-1.24,0.48-1.72,0.92c-0.08,0.08-0.17,0.15-0.25,0.22h1.13
				C103.65,22.01,103.92,21.65,104.23,21.22z"/>
		</g>
		<path class="st5" d="M80.31,68.19c0.35,1.25,1.23,2.08,1.93,3.07c0.14,0.2,0.27,0.46,0.27,0.7c0,1.13,0.49,2,1.48,2.47
			c0.51,0.24,1.04,0.45,1.57,0.64c0.04,0.01,0.08,0.03,0.11,0.04h0h0c0.51,0.18,1.02,0.36,1.52,0.55c0,0,0,0,0,0l0,0
			c0.01-1.14,0.02-2.72-0.01-3.74c-0.02-0.8,0.29-1.27,0.99-1.71c1.34-0.83,2.61-1.77,3.93-2.64H80.08
			C80.17,67.77,80.25,67.97,80.31,68.19z"/>
		<path class="st1" d="M85.55,67.58v-7.54H67.83c0.63,0.33,1.19,0.81,1.75,1.46c0.98,1.14,1.94,2.07,2.1,3.68
			c0.05,0.51,0.85,1,1.39,1.38c0.48,0.34,1.11,0.79,1.59,0.71c0.39-0.06,0.67-0.84,0.98-1.31c0.32-0.48,0.75-0.68,1.33-0.58
			c1.44,0.25,2.54,0.97,3.1,2.2c0,0,0,0,0,0H85.55z"/>
	</g>
</g>
</svg>
